<?xml version="1.0" standalone="no"?>
<!DOCTYPE svg PUBLIC "-//W3C//DTD SVG 20010904//EN"
 "http://www.w3.org/TR/2001/REC-SVG-20010904/DTD/svg10.dtd">
<svg version="1.0" xmlns="http://www.w3.org/2000/svg"
 width="512.000000pt" height="512.000000pt" viewBox="0 0 512.000000 512.000000"
 preserveAspectRatio="xMidYMid meet">
<metadata>
Created by potrace 1.14, written by Peter Selinger 2001-2017
</metadata>
<g transform="translate(0.000000,512.000000) scale(0.100000,-0.100000)"
fill="#000000" stroke="none">
<path d="M3625 4955 c-22 -23 -164 -170 -317 -326 -152 -156 -318 -327 -368
-379 -51 -52 -220 -225 -375 -385 -156 -159 -326 -335 -379 -389 -53 -55 -95
-103 -94 -107 3 -7 245 -256 704 -724 91 -93 297 -304 458 -468 160 -165 320
-328 355 -363 l63 -64 636 0 636 0 -41 43 c-23 23 -88 89 -144 147 -91 94
-414 426 -705 725 -59 61 -236 242 -393 403 -157 162 -286 298 -286 302 0 7
193 210 520 545 33 34 175 180 315 325 140 145 323 333 405 419 190 195 251
259 294 305 l35 36 -640 -1 -639 -1 -40 -43z"/>
<path d="M237 3308 c34 -35 96 -99 140 -144 144 -148 610 -628 725 -745 484
-497 643 -662 643 -670 0 -4 -106 -117 -235 -251 -379 -391 -500 -516 -580
-598 -41 -42 -181 -186 -310 -320 -129 -133 -269 -277 -310 -320 -41 -42 -88
-91 -104 -109 l-30 -31 636 0 636 0 48 49 c46 45 521 532 690 706 42 44 211
217 374 385 422 432 471 484 468 491 -3 8 -77 84 -698 719 -192 195 -394 402
-450 460 -56 58 -176 180 -267 273 l-164 167 -637 0 -636 0 61 -62z"/>
</g>
</svg>
